<?xml version="1.0" standalone="no"?>
<!DOCTYPE svg PUBLIC "-//W3C//DTD SVG 20010904//EN"
 "http://www.w3.org/TR/2001/REC-SVG-20010904/DTD/svg10.dtd">
<svg version="1.0" xmlns="http://www.w3.org/2000/svg"
 width="354.000000pt" height="354.000000pt" viewBox="0 0 354.000000 354.000000"
 preserveAspectRatio="xMidYMid meet">
<metadata>
Created by potrace 1.11, written by Peter Selinger 2001-2013
</metadata>
<g transform="translate(0.000000,354.000000) scale(0.100000,-0.100000)"
fill="#000000" stroke="none">
<path d="M1888 3339 c-8 -5 9 -9 41 -9 61 0 165 -26 196 -48 l20 -14 -20 5
c-11 3 -40 13 -65 23 -34 12 -83 17 -200 19 -200 3 -303 -14 -435 -70 -113
-49 -134 -57 -154 -61 -49 -10 -215 -163 -234 -216 -9 -26 -14 -28 94 34 13 7
27 17 30 22 4 4 10 3 13 -3 5 -7 -6 -17 -28 -26 -20 -9 -36 -19 -36 -25 0 -5
-16 -17 -36 -26 -22 -10 -33 -22 -30 -30 3 -8 0 -14 -8 -14 -7 0 -23 -11 -36
-25 -13 -14 -18 -25 -12 -25 7 0 0 -14 -15 -30 -14 -17 -29 -28 -31 -25 -3 3
3 14 13 25 10 11 14 20 9 20 -15 0 -34 -38 -28 -54 4 -9 -6 -26 -25 -43 -26
-24 -61 -87 -61 -109 0 -4 10 1 22 12 20 17 19 14 -6 -28 -15 -27 -23 -48 -19
-48 4 0 2 -4 -6 -9 -8 -5 -14 -31 -16 -64 -2 -31 -6 -61 -9 -66 -4 -6 4 -15
16 -22 29 -15 39 -30 33 -49 -2 -8 0 -22 5 -30 7 -11 10 -6 10 20 1 31 2 33
10 12 15 -36 14 -89 -3 -224 -19 -143 -22 -238 -7 -238 6 0 9 3 8 8 -2 4 1 8
6 9 5 1 13 7 17 15 6 9 9 4 9 -14 0 -18 5 -28 15 -28 9 0 15 -9 15 -24 0 -27
19 -87 32 -101 6 -6 7 11 3 46 -4 33 -3 64 3 75 12 23 30 156 42 319 8 93 16
139 41 205 17 47 33 95 36 107 3 12 25 42 49 67 24 26 44 53 44 60 0 8 7 16
15 20 8 3 15 11 15 18 0 7 14 24 30 38 17 14 30 29 30 33 0 5 7 15 15 23 8 8
20 23 27 32 20 28 89 64 138 74 88 18 169 21 200 8 39 -16 101 -18 131 -4 62
29 103 36 170 29 38 -4 72 -11 75 -16 3 -5 12 -9 20 -9 9 0 46 -13 82 -29 98
-41 106 -45 117 -46 30 -5 46 -23 75 -82 44 -89 60 -154 75 -313 6 -63 29
-155 55 -220 10 -25 30 -92 45 -150 14 -58 34 -132 45 -165 10 -33 20 -71 22
-85 3 -24 4 -24 20 8 9 18 14 40 11 48 -3 7 0 14 6 14 6 0 11 12 11 26 0 14 4
23 9 20 5 -4 7 2 4 13 -7 26 14 36 22 10 4 -11 13 -18 20 -15 9 3 15 -7 18
-32 3 -20 14 -66 25 -102 l21 -65 0 83 c1 46 -3 91 -8 100 -4 9 -5 40 -1 67 4
28 8 43 9 36 1 -10 4 -11 10 -5 11 10 -14 195 -30 226 -14 27 -24 238 -10 218
8 -12 10 -7 8 22 -1 20 -4 35 -6 32 -4 -3 -71 104 -71 113 0 3 8 -1 18 -8 16
-13 16 -12 2 6 -28 40 -54 65 -64 65 -6 0 -2 -7 8 -15 11 -8 15 -15 9 -15 -14
0 -34 25 -26 33 8 9 -37 57 -53 57 -7 0 -16 9 -19 20 -3 11 -13 20 -21 20 -21
0 -65 31 -58 41 3 5 -2 9 -10 9 -22 0 -29 19 -14 37 7 9 8 14 2 10 -8 -4 -14
6 -18 31 -17 93 -122 282 -189 338 -39 33 -111 68 -167 82 -62 15 -146 21
-162 11z m322 -111 c0 -13 -43 15 -48 31 -3 9 5 7 22 -4 14 -10 26 -22 26 -27z
m-670 -43 c0 -3 -21 -10 -47 -17 -34 -8 -42 -13 -29 -18 13 -4 -5 -13 -55 -27
-41 -11 -83 -24 -94 -28 -17 -6 -18 -5 -5 5 12 10 11 11 -9 6 -16 -3 -21 -2
-14 5 6 6 29 12 52 14 24 2 50 10 58 17 21 18 143 55 143 43z m-270 -115 c-8
-5 -17 -7 -19 -4 -3 3 1 9 9 14 8 5 17 7 19 4 3 -3 -1 -9 -9 -14z m-30 6 c0
-2 -7 -7 -16 -10 -8 -3 -12 -2 -9 4 6 10 25 14 25 6z m-37 -41 c-3 -9 -8 -14
-10 -11 -3 3 -2 9 2 15 9 16 15 13 8 -4z m1257 -287 c0 -5 -9 -3 -20 4 -11 7
-20 16 -20 20 0 5 9 3 20 -4 11 -7 20 -16 20 -20z"/>
<path d="M1788 3333 c7 -3 16 -2 19 1 4 3 -2 6 -13 5 -11 0 -14 -3 -6 -6z"/>
<path d="M2730 2294 c0 -8 5 -12 10 -9 6 4 8 11 5 16 -9 14 -15 11 -15 -7z"/>
<path d="M1335 2170 c-46 -4 -89 -15 -127 -32 -58 -28 -92 -64 -66 -72 7 -2
22 -7 33 -11 26 -9 105 -12 105 -4 0 11 114 19 145 10 34 -10 28 -13 -55 -32
-76 -17 -151 -44 -143 -52 3 -4 0 -7 -8 -7 -9 0 -16 -12 -17 -31 l-3 -32 59 6
c34 4 63 2 68 -3 6 -6 34 -11 62 -11 31 -1 52 -6 52 -13 0 -6 5 -3 11 7 8 13
18 16 47 11 25 -4 43 -1 57 10 20 15 20 15 -3 16 -13 0 -32 -5 -44 -11 -19
-10 -20 -9 -13 23 10 44 10 44 41 19 30 -23 64 -28 64 -8 0 7 10 17 23 22 12
6 23 20 25 33 5 32 -17 92 -34 92 -8 0 -14 6 -14 13 0 35 -142 66 -265 57z
m30 -231 c11 -17 0 -20 -21 -4 -17 13 -17 14 -2 15 9 0 20 -5 23 -11z"/>
<path d="M2108 2175 c-3 -3 -34 -8 -69 -11 -35 -2 -66 -8 -69 -12 -3 -4 -9 -7
-15 -8 -31 -3 -55 -19 -55 -35 0 -10 -5 -21 -11 -24 -6 -4 -8 -13 -5 -21 3 -7
1 -16 -5 -19 -5 -4 -7 -10 -4 -15 3 -5 -1 -20 -10 -33 -21 -33 -10 -57 53
-112 59 -49 77 -55 87 -26 3 11 16 22 28 24 22 4 22 4 -1 6 -13 0 -21 4 -19 9
3 4 39 6 81 6 42 -1 76 2 76 6 0 3 26 5 58 4 97 -5 147 -3 155 5 13 13 16 64
5 78 -6 8 -3 13 11 18 24 7 28 40 10 78 -12 27 -31 38 -96 57 -24 7 -43 17
-43 22 0 9 -153 11 -162 3z m100 -121 c23 -4 42 -10 42 -15 0 -5 7 -9 15 -9 8
0 15 -4 15 -10 0 -12 -7 -12 -67 -1 -26 5 -66 13 -88 16 -38 6 -39 8 -20 21
11 8 29 13 40 10 11 -3 39 -8 63 -12z m-98 -74 c0 -5 -4 -10 -10 -10 -5 0 -10
5 -10 10 0 6 5 10 10 10 6 0 10 -4 10 -10z m-41 -26 c15 -34 10 -38 -34 -30
-40 8 -41 9 -17 35 24 27 37 25 51 -5z m-93 -48 c22 -17 11 -35 -13 -20 -19
12 -29 34 -16 34 5 0 18 -6 29 -14z"/>
<path d="M902 1840 c0 -19 2 -27 5 -17 2 9 2 25 0 35 -3 9 -5 1 -5 -18z"/>
<path d="M2620 1816 c-9 -18 -10 -30 -4 -34 5 -4 16 -27 23 -51 10 -34 10 -50
1 -72 -7 -16 -16 -29 -21 -29 -5 0 -9 -9 -9 -20 0 -29 26 -24 60 11 41 44 46
66 21 93 -12 12 -21 29 -21 37 0 8 -6 23 -14 34 -7 11 -15 29 -17 39 -4 17 -6
15 -19 -8z"/>
<path d="M2750 1676 c0 -13 -3 -26 -7 -28 -18 -7 -44 -69 -38 -88 8 -24 25
-17 25 10 0 10 5 20 11 22 11 4 25 108 15 108 -3 0 -6 -11 -6 -24z"/>
<path d="M1926 1604 c-4 -9 -5 -18 -4 -18 68 -37 82 -57 79 -111 0 -14 1 -16
6 -5 3 8 13 20 20 25 17 13 8 64 -13 72 -8 3 -14 13 -14 23 0 31 -63 43 -74
14z"/>
<path d="M2426 1613 c-11 -11 -6 -23 9 -23 8 0 15 4 15 9 0 13 -16 22 -24 14z"/>
<path d="M1836 1471 c-3 -4 -25 -11 -48 -15 -23 -4 -47 -11 -53 -16 -8 -7 -28
-5 -57 4 -35 10 -48 11 -62 1 -47 -35 58 -50 310 -46 17 1 41 10 53 20 l22 20
-20 20 c-17 17 -34 21 -80 21 -33 0 -62 -4 -65 -9z"/>
<path d="M2549 1424 c11 -23 47 -38 57 -23 3 5 -5 9 -17 9 -12 0 -28 8 -36 18
-13 15 -13 15 -4 -4z"/>
<path d="M1745 1216 c-11 -8 -40 -16 -65 -16 -35 0 -42 -3 -30 -11 11 -8 0 -9
-42 -6 -34 3 -60 1 -64 -5 -3 -5 -16 -7 -29 -4 -13 3 -27 0 -34 -8 -10 -11 -3
-17 35 -30 26 -9 71 -16 100 -16 29 0 56 -5 62 -13 7 -8 38 -12 96 -12 46 1
82 -3 80 -7 -3 -4 14 -8 38 -9 30 -1 37 -3 21 -7 -16 -5 -20 -11 -14 -21 8
-12 13 -12 40 0 17 8 31 17 31 20 0 4 9 9 21 12 12 3 19 10 16 14 -3 5 21 19
54 32 49 20 59 28 59 48 0 21 -16 29 -51 25 -4 -1 -33 3 -64 8 -32 5 -99 12
-149 15 -73 5 -95 3 -111 -9z"/>
<path d="M2263 1064 c-13 -14 -23 -29 -23 -34 0 -9 -35 -20 -67 -20 -16 0 -23
-8 -28 -30 -4 -16 -13 -30 -21 -30 -8 0 -19 -12 -24 -26 -13 -33 -14 -29 14
-47 23 -15 24 -15 18 5 -3 15 -1 19 9 16 16 -5 25 -48 10 -48 -5 0 -11 -12
-13 -27 -2 -20 -8 -27 -20 -25 -14 2 -18 -4 -18 -24 0 -27 -24 -53 -48 -54 -7
0 -28 -10 -45 -23 -49 -36 -102 -48 -222 -51 -60 -1 -119 -6 -129 -11 -14 -6
-17 -5 -12 3 5 8 -5 12 -33 12 -23 0 -41 4 -41 9 0 5 -10 13 -22 17 -12 3 -31
15 -42 25 -21 20 -40 25 -34 10 2 -5 23 -26 48 -46 95 -80 226 -118 384 -113
53 2 96 0 96 -5 0 -4 6 -6 13 -5 12 3 11 -32 -2 -42 -9 -7 -44 -137 -47 -175
-1 -16 -7 -43 -13 -59 -6 -16 -9 -37 -6 -47 5 -13 1 -19 -10 -19 -9 0 -14 -4
-11 -8 6 -10 -38 -54 -96 -96 -26 -20 -43 -26 -59 -21 -22 7 -134 89 -144 106
-4 5 -67 61 -141 124 -245 211 -310 292 -333 419 -6 33 -13 61 -15 64 -3 2
-10 -16 -16 -40 -24 -86 -84 -251 -88 -240 -6 19 -26 14 -104 -26 -41 -21 -94
-44 -118 -51 -25 -7 -85 -34 -134 -58 -50 -25 -149 -67 -220 -95 -72 -27 -150
-58 -173 -69 -24 -10 -47 -19 -53 -19 -5 0 -38 -13 -72 -28 -35 -16 -84 -37
-110 -47 l-48 -18 0 -48 0 -49 1771 0 c1611 0 1770 1 1767 16 -5 27 -389 183
-421 171 -7 -3 1 -10 17 -16 16 -6 26 -14 23 -17 -3 -3 -54 23 -114 59 -140
85 -450 243 -503 257 -23 6 -47 13 -55 16 -10 4 -12 0 -8 -15 10 -38 -5 -22
-30 33 -25 53 -44 130 -50 191 -2 29 -3 29 -24 -18 -12 -26 -29 -57 -37 -69
l-16 -22 0 22 c0 13 4 21 9 18 4 -3 8 18 8 47 0 43 -1 47 -7 22 -4 -16 -8 -24
-9 -17 0 6 -6 12 -12 12 -5 0 -8 -3 -5 -8 2 -4 -2 -16 -10 -27 -8 -10 -14 -13
-14 -7 0 7 -9 12 -19 12 -24 0 -34 25 -15 40 16 14 19 40 4 40 -20 0 -9 18 15
24 22 6 24 9 14 28 -9 16 -8 23 2 30 10 6 7 7 -8 3 -31 -9 -29 5 8 59 17 25
27 50 24 56 -3 5 -2 10 4 10 6 0 13 11 17 25 3 14 10 25 15 25 5 0 9 8 9 18 0
14 -2 15 -10 2 -8 -12 -10 -11 -10 8 0 12 -4 22 -10 22 -5 0 -10 9 -10 20 0
27 -20 25 -47 -6z m-66 -171 c-9 -9 -20 -13 -24 -9 -4 4 -1 11 7 16 25 16 35
11 17 -7z m43 -93 c0 -5 -5 -10 -11 -10 -5 0 -7 5 -4 10 3 6 8 10 11 10 2 0 4
-4 4 -10z m-20 -154 c0 -24 -17 -28 -23 -6 -3 13 0 20 9 20 8 0 14 -6 14 -14z
m-125 -56 c3 -5 1 -10 -4 -10 -6 0 -11 5 -11 10 0 6 2 10 4 10 3 0 8 -4 11
-10z m192 -5 c0 -8 -4 -12 -9 -9 -4 3 -8 9 -8 15 0 5 4 9 8 9 5 0 9 -7 9 -15z
m953 -470 c59 -32 38 -32 -26 -1 -27 14 -42 25 -34 25 8 0 35 -11 60 -24z"/>
<path d="M1991 1017 c-9 -14 -10 -22 -2 -30 8 -8 11 -8 11 0 0 6 11 14 25 17
28 7 26 21 -3 28 -12 3 -24 -2 -31 -15z"/>
<path d="M1785 980 c-3 -5 1 -10 10 -10 9 0 13 5 10 10 -3 6 -8 10 -10 10 -2
0 -7 -4 -10 -10z"/>
<path d="M2300 865 c-7 -9 -11 -17 -9 -20 3 -2 10 5 17 15 14 24 10 26 -8 5z"/>
<path d="M2340 830 c0 -19 3 -21 12 -12 9 9 9 15 0 24 -9 9 -12 7 -12 -12z"/>
<path d="M2055 750 c-3 -5 1 -10 9 -10 9 0 16 5 16 10 0 6 -4 10 -9 10 -6 0
-13 -4 -16 -10z"/>
<path d="M1437 743 c-12 -11 -8 -23 8 -23 8 0 15 7 15 15 0 16 -12 20 -23 8z"/>
</g>
</svg>
